<svg width="1200" height="630" viewBox="0 0 1200 630" fill="none" xmlns="http://www.w3.org/2000/svg">
  <defs>
    <linearGradient id="backgroundGradient" x1="0%" y1="0%" x2="100%" y2="100%">
      <stop offset="0%" style="stop-color:#F0FDF4"/>
      <stop offset="50%" style="stop-color:#ECFDF5"/>
      <stop offset="100%" style="stop-color:#F0FDF4"/>
    </linearGradient>
    
    <linearGradient id="primaryGradient" x1="0%" y1="0%" x2="100%" y2="100%">
      <stop offset="0%" style="stop-color:#059669"/>
      <stop offset="100%" style="stop-color:#10B981"/>
    </linearGradient>
    
    <radialGradient id="sparkleGradient" cx="50%" cy="50%" r="50%">
      <stop offset="0%" style="stop-color:#34D399"/>
      <stop offset="70%" style="stop-color:#10B981"/>
      <stop offset="100%" style="stop-color:#059669"/>
    </radialGradient>
    
    <radialGradient id="backgroundGlow" cx="30%" cy="30%" r="40%">
      <stop offset="0%" style="stop-color:#10B981" stop-opacity="0.1"/>
      <stop offset="50%" style="stop-color:#059669" stop-opacity="0.05"/>
      <stop offset="100%" style="stop-color:#059669" stop-opacity="0.0"/>
    </radialGradient>
  </defs>
  
  <rect width="1200" height="630" fill="url(#backgroundGradient)"/>
  
  <circle cx="300" cy="200" r="400" fill="url(#backgroundGlow)"/>
  <circle cx="900" cy="450" r="300" fill="url(#backgroundGlow)" opacity="0.5"/>
  
  <g transform="translate(100, 180)">
    <rect x="0" y="0" width="180" height="140" rx="20" ry="20" 
          fill="none" 
          stroke="url(#primaryGradient)" 
          stroke-width="6" 
          opacity="0.9"/>
    
    <rect x="8" y="8" width="164" height="124" rx="14" ry="14" 
          fill="url(#primaryGradient)" 
          opacity="0.08"/>
    
    <g opacity="0.6">
      <path d="M20 110 L40 85 L60 95 L80 75 L100 90 L120 70 L140 85 L160 110 L20 110 Z" 
            fill="url(#primaryGradient)" 
            opacity="0.3"/>
      <path d="M30 115 L50 95 L70 105 L90 80 L110 95 L130 75 L150 95 L160 115 L30 115 Z" 
            fill="url(#primaryGradient)" 
            opacity="0.4"/>
      <circle cx="130" cy="50" r="12" fill="url(#primaryGradient)" opacity="0.5"/>
    </g>
    
    <g transform="translate(200, -30)">
      <path d="M0,-20 L6,-6 L20,0 L6,6 L0,20 L-6,6 L-20,0 L-6,-6 Z" 
            fill="url(#sparkleGradient)" 
            opacity="0.95"/>
    </g>
    
    <g transform="translate(220, 60)">
      <path d="M0,-15 L4.5,-4.5 L15,0 L4.5,4.5 L0,15 L-4.5,4.5 L-15,0 L-4.5,-4.5 Z" 
            fill="#10B981" 
            opacity="0.8"/>
    </g>
    
    <g transform="translate(-20, 40)">
      <path d="M0,-10 L3,-3 L10,0 L3,3 L0,10 L-3,3 L-10,0 L-3,-3 Z" 
            fill="#34D399" 
            opacity="0.7"/>
    </g>
    
    <circle cx="240" cy="120" r="4" fill="#34D399" opacity="0.8"/>
    <circle cx="-10" cy="80" r="3" fill="#10B981" opacity="0.7"/>
    <circle cx="15" cy="150" r="2.5" fill="#059669" opacity="0.6"/>
  </g>
  
  <g transform="translate(400, 180)">
    <text x="0" y="50" font-family="system-ui, -apple-system, sans-serif" font-size="64" font-weight="800" fill="#111827">
      WatermarkRemover
    </text>
    <text x="0" y="110" font-family="system-ui, -apple-system, sans-serif" font-size="32" font-weight="600" fill="url(#primaryGradient)">
      Free AI Watermark Remover Online Tool
    </text>
    <text x="0" y="160" font-family="system-ui, -apple-system, sans-serif" font-size="20" font-weight="400" fill="#6B7280" width="650">
      Professional online watermark remover tool. Remove text, logos, and patterns
    </text>
    <text x="0" y="190" font-family="system-ui, -apple-system, sans-serif" font-size="20" font-weight="400" fill="#6B7280">
      from images instantly with AI. Free, fast, HD quality - no registration required.
    </text>
  </g>
  
  <g transform="translate(1050, 500)">
    <rect x="0" y="0" width="100" height="80" rx="8" ry="8" 
          fill="url(#primaryGradient)" 
          opacity="0.1"/>
    <text x="50" y="30" text-anchor="middle" font-family="system-ui, -apple-system, sans-serif" font-size="14" font-weight="600" fill="url(#primaryGradient)">
      AI POWERED
    </text>
    <text x="50" y="50" text-anchor="middle" font-family="system-ui, -apple-system, sans-serif" font-size="12" font-weight="400" fill="#6B7280">
      Advanced
    </text>
    <text x="50" y="65" text-anchor="middle" font-family="system-ui, -apple-system, sans-serif" font-size="12" font-weight="400" fill="#6B7280">
      Technology
    </text>
  </g>
  
  <circle cx="1100" cy="100" r="2" fill="#34D399" opacity="0.6"/>
  <circle cx="50" cy="550" r="1.5" fill="#10B981" opacity="0.5"/>
  <circle cx="1150" cy="300" r="2.5" fill="#059669" opacity="0.4"/>
</svg>