<svg width="800" height="600" xmlns="http://www.w3.org/2000/svg">
  <!-- Gradient definitions -->
  <defs>
    <linearGradient id="sky" x1="0%" y1="0%" x2="0%" y2="100%">
      <stop offset="0%" style="stop-color:#4A90E2;stop-opacity:1" />
      <stop offset="70%" style="stop-color:#7BB3F0;stop-opacity:1" />
      <stop offset="100%" style="stop-color:#A8D0F0;stop-opacity:1" />
    </linearGradient>
    <linearGradient id="mountain1" x1="0%" y1="0%" x2="0%" y2="100%">
      <stop offset="0%" style="stop-color:#2E5266;stop-opacity:1" />
      <stop offset="100%" style="stop-color:#1C3A47;stop-opacity:1" />
    </linearGradient>
    <linearGradient id="mountain2" x1="0%" y1="0%" x2="0%" y2="100%">
      <stop offset="0%" style="stop-color:#4A7C7E;stop-opacity:1" />
      <stop offset="100%" style="stop-color:#2E5266;stop-opacity:1" />
    </linearGradient>
    <linearGradient id="ground" x1="0%" y1="0%" x2="0%" y2="100%">
      <stop offset="0%" style="stop-color:#3A5F3A;stop-opacity:1" />
      <stop offset="100%" style="stop-color:#2D4A2D;stop-opacity:1" />
    </linearGradient>
    <filter id="blur" x="0" y="0">
      <feGaussianBlur in="SourceGraphic" stdDeviation="0.5" />
    </filter>
  </defs>
  
  <!-- Sky background -->
  <rect width="800" height="450" fill="url(#sky)"/>
  
  <!-- Sun -->
  <circle cx="600" cy="120" r="40" fill="#FFE4B5" opacity="0.9">
    <animate attributeName="opacity" values="0.9;1;0.9" dur="4s" repeatCount="indefinite"/>
  </circle>
  <circle cx="600" cy="120" r="50" fill="#FFE4B5" opacity="0.3"/>
  
  <!-- Clouds -->
  <g opacity="0.7">
    <ellipse cx="150" cy="80" rx="60" ry="20" fill="white"/>
    <ellipse cx="180" cy="85" rx="45" ry="18" fill="white"/>
    <ellipse cx="120" cy="85" rx="40" ry="15" fill="white"/>
  </g>
  
  <g opacity="0.6">
    <ellipse cx="650" cy="60" rx="50" ry="18" fill="white"/>
    <ellipse cx="680" cy="65" rx="40" ry="15" fill="white"/>
  </g>
  
  <!-- Background mountains -->
  <polygon points="0,380 150,220 300,300 450,180 600,280 800,350 800,600 0,600" 
           fill="url(#mountain1)" opacity="0.8" filter="url(#blur)"/>
  
  <!-- Foreground mountains -->
  <polygon points="0,400 200,250 400,350 550,270 700,330 800,380 800,600 0,600" 
           fill="url(#mountain2)"/>
  
  <!-- Ground/Forest -->
  <rect x="0" y="450" width="800" height="150" fill="url(#ground)"/>
  
  <!-- Trees -->
  <g opacity="0.8">
    <polygon points="100,450 130,380 160,450" fill="#1F3A1F"/>
    <rect x="125" y="450" width="10" height="30" fill="#4A3C28"/>
  </g>
  
  <g opacity="0.7">
    <polygon points="250,460 275,400 300,460" fill="#2D4A2D"/>
    <rect x="270" y="460" width="10" height="25" fill="#4A3C28"/>
  </g>
  
  <g opacity="0.9">
    <polygon points="680,440 710,370 740,440" fill="#1F3A1F"/>
    <rect x="705" y="440" width="10" height="35" fill="#4A3C28"/>
  </g>
  
  <!-- Lake reflection -->
  <ellipse cx="400" cy="480" rx="150" ry="30" fill="#4A90E2" opacity="0.6"/>
  <ellipse cx="400" cy="480" rx="130" ry="25" fill="#7BB3F0" opacity="0.4"/>
  
  <!-- Birds in the sky for added detail -->
  <g opacity="0.7">
    <path d="M 320 150 Q 325 145 330 150" stroke="#333" stroke-width="2" fill="none"/>
    <path d="M 340 160 Q 345 155 350 160" stroke="#333" stroke-width="2" fill="none"/>
    <path d="M 355 155 Q 360 150 365 155" stroke="#333" stroke-width="1.5" fill="none"/>
  </g>
</svg>